<?xml version="1.0" encoding="utf-8"?>
<!-- Generator: Adobe Illustrator 25.2.1, SVG Export Plug-In . SVG Version: 6.00 Build 0)  -->
<svg version="1.1"
	 id="svg5756" sodipodi:docname="Russia_Moscow_oblast_locator_map.svg" xmlns:cc="http://creativecommons.org/ns#" xmlns:dc="http://purl.org/dc/elements/1.1/" xmlns:inkscape="http://www.inkscape.org/namespaces/inkscape" xmlns:rdf="http://www.w3.org/1999/02/22-rdf-syntax-ns#" xmlns:sodipodi="http://sodipodi.sourceforge.net/DTD/sodipodi-0.dtd" xmlns:svg="http://www.w3.org/2000/svg"
	 xmlns="http://www.w3.org/2000/svg" xmlns:xlink="http://www.w3.org/1999/xlink" x="0px" y="0px" viewBox="0 0 3306.8 2387.8"
	 style="enable-background:new 0 0 3306.8 2387.8;" xml:space="preserve">
<style type="text/css">
	
		.st0{fill-rule:evenodd;clip-rule:evenodd;fill:#FFFFE0;stroke:#878787;stroke-width:3;stroke-linejoin:bevel;stroke-miterlimit:10;}
	
		.st1{fill-rule:evenodd;clip-rule:evenodd;fill:#5CAD5E;stroke:#878787;stroke-width:3;stroke-linejoin:bevel;stroke-miterlimit:10;}
	
		.st2{fill-rule:evenodd;clip-rule:evenodd;fill:#FFA040;stroke:#878787;stroke-width:3;stroke-linejoin:bevel;stroke-miterlimit:10;}
	
		.st3{fill-rule:evenodd;clip-rule:evenodd;fill:#BB002F;stroke:#878787;stroke-width:3;stroke-linejoin:bevel;stroke-miterlimit:10;}
	
		.st4{fill-rule:evenodd;clip-rule:evenodd;fill:#C43E00;stroke:#878787;stroke-width:3;stroke-linejoin:bevel;stroke-miterlimit:10;}
	
		.st5{fill-rule:evenodd;clip-rule:evenodd;fill:#FF6F00;stroke:#878787;stroke-width:3;stroke-linejoin:bevel;stroke-miterlimit:10;}
	.st6{fill:none;stroke:#000000;stroke-width:4;stroke-linejoin:bevel;stroke-miterlimit:10;}
	
		.st7{fill-rule:evenodd;clip-rule:evenodd;fill:#FFFFFF;stroke:#000000;stroke-width:4;stroke-linejoin:bevel;stroke-miterlimit:10;}
	
		.st8{fill-rule:evenodd;clip-rule:evenodd;fill:#FFFFFF;stroke:#000000;stroke-width:4;stroke-linejoin:bevel;stroke-miterlimit:10;enable-background:new    ;}
	.st9{fill:url(#SVGID_1_);}
</style>
<sodipodi:namedview  bordercolor="#666666" borderopacity="1" gridtolerance="10" guidetolerance="10" id="namedview5861" inkscape:current-layer="svg5756" inkscape:cx="1238.2847" inkscape:cy="1187.4281" inkscape:pageopacity="0" inkscape:pageshadow="2" inkscape:window-height="961" inkscape:window-maximized="1" inkscape:window-width="1280" inkscape:window-x="-8" inkscape:window-y="-8" inkscape:zoom="0.2798779" objecttolerance="10" pagecolor="#ffffff" showgrid="false">
	</sodipodi:namedview>
<path id="_186521280" inkscape:label="#_Mytyschi" class="st0" d="M1961.1,831.4l-9.5-8l7.5-3.5l2-9.5l13.5-9l1-3.5l-12,1l-0.5,4
	l-5-1.5l-0.5-14l2-11.5l12-15l-7.5-5.5l4.5-16l-9-12l6-1.5l-3.5-10.5l26-9.5l23,3l29,25.1l18-1l4.5,2l-0.5,9.5l-9,2l-6.5,31.1
	l11.5,6.5l-2.5,3.5l56.5,48.6l-5,3.5v0.5l-3.5,2l1,2l1,0.5l-1,1l-2.5,1.5l0.5,0.5l2.5,3.5h1l-4,7.5l-5-1l-1.5,1.5l5,7.5l-5-0.5
	l-3,8.5l4.5,8.5l6.5,3l12,15v1.5l-6,5.5l-6.5,18l1.5,9.5l23-4.5l10.5,7l-10.5,16l-18,1.5l0.5,4.5l-13.5,1v13.6l-37-33.1l-7.5-1
	l-5-0.5h-13.5l-33.5-13l-12,1l-1.5,0.5l3-4l-0.5-16.5l2.5-1.5l1.5-0.5l1-4.5l-3-2v-6.5l6.5,0.5l-0.5-5l-3-2.5l-15.5,4l2,8.5h-3.5
	l-2.5-10l-3.5-0.5l6.5-8.5l-5.5-7.5l2-7.5l-15-13l-16.5,10.5l-1.5-6.5l-10,3l0.5-8.5l30.5-5.5l2-5L1961.1,831.4z"/>
<path id="_142981528" inkscape:label="#_Vidnoe" class="st1" d="M2010.1,1291.5l-2.5-10.5l-6-7l-3-1.5l2-13.5l3-20.1l8-3.5
	l-4.5-11.5l34.5,4l12-4l36-26.1l16-16l2,2l0.5,8l8.5,1.5l5-6l12.5-0.5l9,10l-8,4l8,3.5v8l11.5,15.5l7.5,2l4.5,6.5l10.5,6l-6.5,16
	l3,20.6l4.5-5l10,17.5l-8.5,7.5l-7-11l-9,8.5l-5-6v-8l-10.5-5.5l-3-9.5l-13,19.6l-11-12.5l2.5,25.6l-32-8.5l-4,10l-21-10l-7-20.5
	l-21.5,13.5l-23-4.5l-3,19.5l-11-3L2010.1,1291.5z"/>
<path id="_142172784" inkscape:label="#_Odintsovo" class="st0" d="M1402.5,1269l9-10l-5.5-13l15-14l41-7l22.5-24.6l26-10l-17-14.5
	l1.5-27.1l12-9.5l-28-39.1l6.5-13l-4.5-19.6l7.5-5l-14-15.5l12-14.5l27.5,12.5l0.5-19l11.5,3l22.5-32.6l43,4l9.5,11l38-3.5l12,17.5
	l23.5-7l16,27.1l33.5,15l30.5-0.5l4.2,5l18.2,14.4l3.5-4.3l13.5,1l10.5,9.5l18.5-19.5l26.5,10v-18.5l19.5-5.5l5,2.5l3.5-4l3.5,2.5
	l11.8-16.5l0.8-1.5l-10.6-6.6l-1,1l-1.5-1l-4.5-0.5l1-5.5l8-4.5h9.5l1,5h1.5l2.5-6l3.5,0.5l-1,5l-7.5,13l-1,1.5l-0.5,37.1l8.2,24.8
	l2.2,5.5l-1.7,8.7l-8.4-5.7l-6.3,6.7l-2.3,7.9l-2.1-6.3l-7.3,12.2l13.3,4.4l19.1-22.3l5.8,9.9l4,11l-4,3l-3-5l-6.5,8.5l-7.4-11
	l-0.6,11.5l-6.5-0.5l-6.5-0.5l-2,11.5l-2.5,3.5l-5.5-6.5l-6.5,16.5l-11.7-3.1l0.9-4.9l3.2,0.2l0.5-4.3l-3.8-0.5l-1.6,9.4l-7.5-1.8
	l-18,8l3,8.5l-12,12.5l-3-4l-0.5,2l-3.5-3l-9,4l-6,13.5l-21-4.5l-1.5,9.5l-8.5-6l-16,15.5l-5.5-21.1l-27.5,6.5l10,7.5l-2.5,3.5
	l-9.5-4l-5,10.5l13.5,2l-15.5,15.5l1-11.5l-47,6l-10.5,14.5l-31.5,2.5l0.5,18l-20.5,17l-44,7.5v9.5l-24-12.5l-6.5,12.5l-4-14.5
	l-21.5-1.5l-1.5,26.1l-34.5-36.1l-25.5,24.1l-16-19.6L1402.5,1269z"/>
<path id="_186807760" inkscape:label="#_Krasnogorsk" class="st0" d="M1749,1049.9l24-12l2-18l11-1.5l4-17l-9.5-11l16.5-21.6l-3-16
	l-14.5-4.5l-8.5-10.5l9-4.5l15.5-7.5l23.5,16l13,1.5l-7.5,6l11.5,2v-7l17,3l-6.5-5.5l4.5-8l6,6l3-6.5l6.5,17.5l12.5,10.5l4.5-12l6,4
	l6-2l3.5,7.5h11.5l3.5,3.5l-4,4l-3,10l-8,1.5l-2-3l1.5-3l-0.5-7l-6.5,2l-3-1l-10.5,9l1.5,3.5l-4,9l8,0.5l-4.5,2.5l2,3.5l1,7.5
	l4.5,4.5v-6l3,6.5l8-8l9,1l-5.7,14.5l-1.2,2.8l0.4-1.2l-3.5-2l-2,4.5h-9.5l-8,4.5l-15.5-0.2l3.9,15l10.3,7.9l-1.7,4.3l-5,2.5
	l-19.5,5.5v18.5l-26.5-10l-18.5,19.5l-10.5-9.5l-13.5-1l-3.5,4.3l-18.2-14.4l-4.2-5l2-2L1749,1049.9z"/>
<path id="_186808720" inkscape:label="#_Khimki" class="st2" d="M1853.1,876.5l0.5,6.5l18-8l12,7l6-2.5l12.5-10.5l4-6.5l8,0.5l4-9
	l5.5,1.5v3h7.5l10-3l1.5,6.5l-0.5,5.5l0.5,4l-5-0.5l-2,5.5l6.5,3l-1,9l7.5-7l4.5,2l-6,14l6.5,10.5l-4,24.1l10,2l1.5,5.5l-17.5,12.5
	h-12.5l-9.5,6l-8-3l-5-19l-4.5-0.5l-1-11l6.5-0.5l-2.5-7.5l6.5-1l-2.5-11l12-11.5l-9-3.5l-5.5,4.5l-18-7l-2.5,2l1.5,2l-2.5,2l-3-2.5
	l-3.5,3l6.5,9.5l-4,3l-2-3l-5,4l6.5,7.5l3.5-4.5l11.5,7.5l-5.5,7.5l3,2.5l-4,12.5l6,3.5l-1.5,7.5l-6,2l-6-4l-4.5,12l-12.5-10.5
	l-6.5-17.5l-3,6.5l-6-6l-4.5-2.5l-2-8.5l7-11.5l16,9.5l5.5-17.5l-8-4l1,13.5l-4.5,0.5l0.5-9.5l-16,1.5l-4.5-9.5l7.5-1.5l-10.5-8
	l-5.5,16.5l-8.5-22.1l11-3l5.5-1H1853.1z"/>
<path id="_186813992" inkscape:label="#_Dolgoprudny" class="st3" d="M1942.6,862l16.5-10.5l15,13l-2,7.5l5.5,7.5l-6.5,8.5l3.5,0.5
	l2.5,10l-7,2.5l7.5,29.1l-4,0.5l-12.5,9l-1.5-5.5l-10-2l4-24.1l-6.5-10.5l6-14l-4.5-2l-7.5,7l1-9l-6.5-3l0.5-2l1.5-3.5l5,0.5l-0.5-4
	L1942.6,862z"/>
<path id="_186815192" inkscape:label="#_Lobnya" class="st0" d="M1958.1,801.3l5,1.5l0.5-4l12-1l-1,3.5l-13.5,9l-2,9.5l-7.5,3.5
	l9.5,8l3,8l-2,5l-30.5,5.5l-0.5,8.5h-7.5v-3v-7.8l-8-2.3l5.5-7l-6.5-3l-1-12l9-5.5l-1-6.5l7.5,4.5l24-29.6l4.5,1L1958.1,801.3z"/>
<path id="_186816128" inkscape:label="#_Reutov" class="st0" d="M2151.1,1052l1,3.5l-4,1.5l2,5.5l2.5,1l-0.5,6.5l-21.5,5v-2.5v-27.1
	l12-4.5l-0.5,7.5L2151.1,1052z"/>
<path id="_186818312" inkscape:label="#_Solnechnogorsk" class="st4" d="M1923.6,855.5l-5.5-1.5l-4,9l-8-0.5l-4,6.5l-12.5,10.5
	l-6,2.5l-12-7l-18,8l-0.5-6.5h-12l1.5-17h-6l4-4.5l-35-24.6l-13.5,8l-6-7.5l-11,2.5l13,21.6l-7,4.5l4,16l-3,7.5l20,1.5l16.5,12
	l-4-21.1l6.5-10l13,4l1.5,8l-11,3l8.5,22.1l5.5-16.5l10.5,8l-7.5,1.5l4.5,9.5l16-1.5l-0.5,9.5l4.5-0.5l-1-13.5l8,4l-5.5,17.5
	l-16-9.5l-7,11.5l2,8.5l4.5,2.5l-4.5,8l6.5,5.5l-17-3v7l-11.5-2l7.5-6l-13-1.5l-23.5-16l-15.5,7.5l-8.5-12.5l-10.5,5l5.5-11l-7.5,2
	l-6.5-20.1l-13-3l2.5-37.1l-29,8l-8.5-29.6l-75.5-14.5v-12.4l-25-39.6l-16,2.5l-18.5-14l-3.5-8.5l8.5-2.5l2.5,8l13-34.1l-18.5-15
	l12.5-11l-5.5-4l7-8.5l-3-14l28-10.5l3.5-7l26-3l1.5-25.1l11.5-14.5l-3-15l18,1v-15l23-5l23.5,10l2-11.5l-23-17l26.5-0.5l-10.5-25.1
	l13-1.5v8.5l37,42.1l0.5,10.5l23,8.5l7,14.5l-13.5,14l1.5,13.5l45-3l12.5,24.6l9,4.5l7.5,11l-20.5,32.1l6.5,34.6l10-1.5l14.5,17.5
	l-17,8.5l-1,16.5l19,25.1l4.5-4.5l32,7.5l-2-10l11,6l3.5-5l9,8.5l1,6.5l-9,5.5l1,12l6.5,3l-5.5,7l8,2.3V855.5z"/>
<path id="_186824720" inkscape:label="#_Korolev" class="st0" d="M2127.6,931.1l-23,4.5l-1.5-9.5l6.5-18l6-5.5v-1.5l0.5-1v-1.5h8
	l-2.5-6l3.5-3l7.5,3l5-3.5l26.5,2.5l4-4l7-2.5l6.5,0.5l5,8l-1.5,6l-4.5-0.5l-0.5-4.5h-12l-0.5,6.5l-11.5,7.5l9.5,12.5l-7,7.5
	l7.5,2.5l4-2.5l4.5,5l-3,20.6l-7.5,4l-3.5-3l-33,12l-8.5,0.5l-9-7.5l-0.5-4.5l18-1.5l10.5-16L2127.6,931.1z"/>
<path id="_186826872" inkscape:label="#_Pushkino" class="st0" d="M2096.6,648.4l9.5,2.5l0.5,13l8.5-3.5l38.5-6.5l50,28.6l12-6.5
	l4.5,16l7.5,7.5l48.5-5l4,4.5h21.5l-0.5,0.5l112-97.2l2,2l-9.5,10l8,8.5l-1.5,11l16,16.5l-73.5,61.6l-4.5,13l-14.5,13l-8.5,0.5
	l-25.5,23.6l-9.5,17.5l-19.5,4.5l13.5,19l-7,22.6l-6.5-12l-12.5-1l-7.5,7.5l-11-14.5l-14,14l-22-1l7.5,9l-14.5,11l7,21.1l-10,1
	l-9.5-7l-5,1l9,11l3,1.5l-1.5,15l-3.5,2l-2.5-4l-8-0.5l-2.5,5l-7,2.5l-4,4l-26.5-2.5l-5,3.5l-7.5-3l-3.5,3l2.5,6h-8v1.5l-0.5,1
	l-12-15l-6.5-3l-4.5-8.5l3-8.5l5,0.5l-5-7.5l1.5-1.5l5,1l4-7.5h-1l-2.5-3.5l3-1.5l-1-0.5l1-1l1,0.5l1-2l-0.5-3v-0.5l5-3.5
	l-56.5-48.6l2.5-3.5l-11.5-6.5l6.5-31.1l9-2l0.5-9.5l-4.5-2l6.5-24.1l-8.5-16.5l23-21.6L2096.6,648.4z"/>
<path id="_186827496" inkscape:label="#_Dmitrov" class="st5" d="M1718,498.1l15.5-3l-11-8.5l3.5-16l-28.5-27.6l20.5-20l9.5-19.5
	l25.5-0.5l14-11.5l-6-9.5l-18-5.5l3-11l7.5,5l5,3.5l27-43.1l-13.5-11.5l7-12l-11.5-22.1l20.5-9.5l2.5-8l-17-13.5l14-4.5l-1-10
	l10-5.5l30.5,22.1l74.5,94.7l13.5,43.1l71.5-25.6l3,12l18.5,14.5l27.5,8L2061,364l27-16l13.5,11l-2,11.5l6,2l7,19.5l-2,15l8.5,12
	l-3,7.5l15.5,4l14.5,24.6l-17,14.5l-10,20.1l10,19.5l-21,31.6l1.5,16.5l-14,13l12,31.1l-22,12.5l24,2.5l5,30.1l-8.5,4.5l-9.5-2.5
	l-17.5,22.1l-23,21.6l8.5,16.5l-6.5,24.1l-18,1l-29-25.1l-23-3l-26,9.5l3.5,10.5l-6,1.5l9,12l-4.5,16l7.5,5.5l-12,15l-2,11.5l-4.5-1
	l-24,29.6l-7.5-4.5l-9-8.5l-3.5,5l-11-6l2,10l-32-7.5l-4.5,4.5l-19-25.1l1-16.5l17-8.5l-14.5-17.5l-10,1.5l-6.5-34.6L1852,676
	l-7.5-11l-9-4.5l-12.5-24.6l-45,3l-1.5-13.5l13.5-14l-7-14.5l-23-8.5l-0.5-10.5l-37-42.1v-8.5l-2-14.5l6-6l-8-1L1718,498.1z"/>
<path id="_186830176" inkscape:label="#_Schelkovo" class="st0" d="M2166.1,931.1l-7.5-2.5l7-7.5l-9.5-12.5l11.5-7.5l0.5-6.5h12
	l0.5,4.5l4.5,0.5l1.5-6l-5-8l-6.5-0.5l2.5-5l8,0.5l2.5,4l3.5-2l1.5-15l-3-1.5l-9-11l5-1l9.5,7l10-1l-7-21.1l14.5-11l-7.5-9l22,1
	l14-14l11,14.5l7.5-7.5l12.5,1l6.5,12l7-22.6l-13.5-19l19.5-4.5l9.5-17.5l25.5-23.6l8.5-0.5l14.5-13l4.5-13l73.5-61.7l7.5,19
	l34.5-8.5l-14.5,30.1l12,22.6l-3,24.6l9,7.5l-1.5,16.5l5,16.5l-16,9.5l11.5,0.5l6.5,12l-11,4.5l-13-10.5l-10,5l1.5-15l-7-6l-7.5,7
	l-2-2.5l2-13l-21.5-6.5l11.5,8.5l-6.5,5l11.5,8.5l1.5,8l-15.5-6.5l3,9.5l-12-1l-9,1.5l13.5,11.5l-7.5-0.5l-13.5,18l-49-14.5l-2,18
	l20.5,4l1.5,22.1l-14.5,8l-3-11.5l-13.5,10l-0.7-9.2l-13.2,1l-3.7,9.2l-8.8-0.3l-8,20.4l-21.4,0.3l-5.7,26.9l-17.1,14.5l0.3,26.6
	l9.3-1.8l3.5-0.5l0.5,3.5h3l1-5l11.5,6.5l8.5,4.5l-3.5,15l11.5,1l18.5,5.5l3-5l4,3.5l-7.5,10l1.5,13.5l-30,4.5l-10-10.5l-1.5,8
	l-18-3l-15.5,6l-7.5-13.5l-19-15l-12.5,8l-8.5-6.5l2.5-2.5l-1-8l-15.5-0.5l-13.5-11.5l7.5-4l3-20.6l-4.5-5L2166.1,931.1z"/>
<path id="_186831808" inkscape:label="#_SergievPosad" class="st0" d="M2107.1,264.5l23,4l21-21.6l14.5-1.5l31-16l20,23.1l17.5-16.5
	l-11-25.1l16-15.5l2-8.5l3-10l19.5,1l12-9h36.5l18,8.5v-26.1l31.5,25.1l-3.5,18.5l11,21.1l-9,20.6l7.5,49.1l12.5,8.5l-9,20.1
	l16.5,10l2,18l-38.5,28.6l-6,13.5l10.5,11l24-1.5l-23,20l22.5,11.5l-2,22.1l28.5-4l7,18l-15.5,34.1l32,5.5l4,16l-22,4l10,10.5
	l-9,34.1l13.5,7l-4,21.1l-8.5,8.5l-111.5,96.8h-21.5l-4-4.5l-48.5,5l-7.5-7.5l-4.5-16l-12,6.5l-50-28.6l-38.5,6.5l-8.5,3.5l-0.5-13
	l8.5-4.5l-5-30.1l-24-2.5l22-12.5l-12-31.1l14-13l-1.5-16.5l21-31.6l-10-19.5l10-20l17-14.5l-14.5-24.6l-15.5-4l3-7.5l-8.5-12l2-15
	l-7-19.5l-6-2l2-11.5l-13.5-11l11-20.1l-19.5-29.6l2.5-19.5L2107.1,264.5z"/>
<path id="_186707080" inkscape:label="#_Chernogolovka" class="st0" d="M2387.7,826.4l13.5-18l7.5,0.5l-13.5-11.5l9-1.5l12,1l-3-9.5
	l15.5,6.5l-1.5-8l-11.5-8.5l6.5-5l-11.5-8.5l21.5,6.5l-2,13l2,2.5l10,16.5l-6-6.5l-20.5,19.5l19.5,5l-2,28.1l-27-2l-0.5,15l-15-4
	l-8.5,10h-18l-5.5-11.5l-1.5-22.1l-20.5-4l2-18L2387.7,826.4z"/>
<path id="_186709296" inkscape:label="#_Noginsk" class="st0" d="M2414.7,1091.2l-3.6,24.4l-9,7.5l-30.5,7l-5.5,6.5h-19v-7.5
	l-13.5-2l-14.5,8.5l-9,1l0.5-17l-25-8.5l2-8l-18.5-2l-8.5-19.6l-5.5,1l-2-5.5l8-4.5l16,7.5l4.5-7.5l-17.5-9.5l-0.5-8l-27-7.5l7.5-15
	l-5-24.6l15.5-6l18,3l1.5-8l10,10.5l30-4.5l-1.5-13.5l7.5-10l-4-3.5l-1-15.5l15.5,1.5l0.5-17l-9.5-23.1l1-10l-13-9.5l1-5l16-0.5
	l-2.5-20.6l14.5,1.5l-11-15l13.5-10l3,11.5l14.5-8l5.5,11.5h18l8.5-10l15,4l0.5-15l27,2l2-28.1l-19.5-5l20.5-19.5l6,6.5l-10-16.5
	l7.5-7l7,6l-1.5,15l10-5l13,10.5l11-4.5l-6.5-12l-11.5-0.5l16-9.5l5.5,15l19.5,6l-1,28.6l14,6l1.5,1l-23.5,13.5l14,21.6l16-4.5
	l-3,33.1l27,13.5l-15,6l-9.5,39.6l5.5,22.1l-10.5,8.5l1.5,14l-44.5,17l0.5,18.5l-3.5,17.1l-9-30.6l-13-5l2.5-6.5l-12.5-9l-24.5,5.5
	l2.5,4l-20.5,23.6l4.5,23.1l8.1,5.9L2414.7,1091.2z"/>
<path id="_186709472" inkscape:label="#_LosinoPetrovsky" class="st0" d="M2283.2,974.3l3.5-15l-8.5-4.5l-11.5-6.5l-1,5h-3l-0.5-3.5
	l-3.5,0.5l-9.3,1.8l-0.3-26.6l17.1-14.5l5.7-26.9l21.4-0.3l8-20.4l8.8,0.3l3.7-9.2l13.2-1l0.7,9.2l11,15l-14.5-1.5l2.5,20.6l-16,0.5
	l-1,5l13,9.5l-1,10l9.5,23.1l-0.5,17l-15.5-1.5l1,15.5l-3,5l-18.5-5.5L2283.2,974.3z"/>
<path id="_186710344" inkscape:label="#_Elektrostal" class="st0" d="M2466.7,1107.6h-15v32.1l-3,1l-6-7.5l-22-6l-9.5-11.5l3.6-24.4
	l-4.9-24.8l-8.1-5.9l-4.5-23.1l20.5-23.6l-2.5-4l24.5-5.5l12.5,9l-2.5,6.5l13,5l9,30.6l1,5l-21,1l1,5l22,24.1l-15,8L2466.7,1107.6z"
	/>
<path id="_186716824" inkscape:label="#_Lytkarino" class="st0" d="M2177.1,1229.9l11-3.5l8,5l-5.5,3.5l1,12l-14.5-4.5l-10.5-6
	l-4.5-6.5l-7.5-2l-11.5-15.5v-8l2.5-4l17.5-5l10,30.1L2177.1,1229.9z"/>
<path id="_186718616" inkscape:label="#_Dzerzhinsky" class="st0" d="M2130.6,1167.7l13,2.5l2,2l-2.5,3.5l7.5,11l-5,13.5l-2.5,4
	l-8-3.5l8-4l-9-10l-12.5,0.5l-5,6l-8.5-1.5l-0.5-8l-2-2l6.5-6.5l13-16.5l4.5,3L2130.6,1167.7z"/>
<path id="_186720768" inkscape:label="#_Kotelniki" class="st0" d="M2138.6,1136.7l14.5,12l5.5,14v8.5l-15-1l-13-2.5l-1-6l-4.5-3
	l4-4l-1-16l-3.5-13L2138.6,1136.7z"/>
<path id="_186722168" inkscape:label="#_Ramensky" class="st0" d="M2188.1,1291.5l-10-17.5l-4.5,5l-3-20.6l6.5-16l14.5,4.5l-1-12
	l5.5-3.5l11.5,0.5l-3-10l-5-1v-12l-7.5-7l11.5-7.5l1.5-8l-8,1.5l-12-8l4.5-8l18.5,12l14-2.5l-1-10.5l10.5-7.5l-2-9l6.5,1l6.5-10
	l5,0.5l4-11l-11-10.5l1-7l7.5-1v-2.5l14.5-8l7.5,7l14.5-1.5l25,8.5l-0.5,17l9-1l14.5-8.5l13.5,2v7.5h19l5.5-6.5l30.5-7l9-7.5
	l9.5,11.5l22,6l6,7.5l1,6l40,15l6,33.6l13.5-6l8.5-1.5l5,6l-23,10l31,26.1l-2.5,11.5l-10-7.5l-3,4l-54,0.5l-25.5,17.5l-9,43.6l-28-6
	l-1,22.5l-9.5,14.5l25,11l-1.5,16.5l12.5,9.5l1,19.6l35-7.5l4,18.5l-11,1.5l-13.5,23.6l27,22.1l-1.5,18l-13.5,13.5l0.5,27.6l-25,15
	l-14-1.5l-6-22.6l-23-2.5l-29.5,15l-7.5-5.5l1-18l-19,5.5l-5-5l-25,6l-23.5-3l-12.5,6.5l-2.5-13.5l6.5-11.5l-9-1l1.5-10.5l-12.5-6
	l-4.5,11.5l-19.5,4l1.5-9l-10.5-2.5l-10.5-12.5l5.5-5.5l4,5l5-10l8,2l10.5-14l-6-14.5l-13.5-12l-6.5,5.5l-11-30.6l-8-5l-4.5,6
	l-16-13.5l18.5-11.5l-11-36.1l-15.5,5.5l-11-27.1l6.5,3l5,6l9-8.5l7,11L2188.1,1291.5z"/>
<path id="_186723144" inkscape:label="#_Bronnitsy" class="st0" d="M2348.2,1377.3l-4,6.5l-29-6l-11.5-29.6l7.5-3l9,15.5l13-20
	l29.5,23.6l-13.5,4l8.5,12.5L2348.2,1377.3z"/>
<path id="_186730704" inkscape:label="#_PavlovskyPosad" class="st0" d="M2459.7,1098.6l15-8l-22-24.1l-1-5l21-1l-1-5l3.5-17.1
	l-0.5-18.5l44.5-17l-1.5-14l10.5-8.5l-5.5-22.1l9.5-39.6l15-6l-27-13.5l3-33.1l31.5-6l16,6l42,37.1l12.5,21.1l16,23.6l-5,5
	l-15.5-20.6l-22-6l-16.5,0.5l1.5,38.6l-4.5,1l1.5,13.5l33.5-0.5l-0.5,3l-12.5,1l1,11.5l-19.5,7l12.5,25.1l8.5,2v11.5h9.5l1.5,15.9
	v15.7l-12,2l-1.5,14l21.5,11l-8.5,21.6l-9.5,2l25,23.1l0.5,15l-6,4l-12.5-0.5l5,4.5l-18,26.6l-31.5-4l-9,4l-35.5-1.5l-5-6l-8.5,1.5
	l-13.5,6l-6-33.6l-40-15l-1-6l3-1v-32.1h15L2459.7,1098.6z"/>
<path id="_186731552" inkscape:label="#_OrekhovoZuevo" class="st0" d="M2948.8,1074l18,33.1l-33.5,49.1l-18.5,43.1l14,4.5
	l-29.5,24.6l-25-3l10,37.1l-47.5,6l-43-4.5l-3,25.6l-14.5,9.5l-6-9.5l-46.5-2l-4.5,21.1l-8.5,7l10,20.6l-32.5-2.5l0.5,36.6l-23,13.5
	l-17-1l-5-0.5l2-12.5l-39.5-3.5l-6-46.1l-24,5.5l-16.5-12.5l13-16v-21.1l-44,12.5l2.5-15.5l-11.5-11l7.5-12.5l-12-11.5l3-4l10,7.5
	l2.5-11.5l-31-26.1l23-10l35.5,1.5l9-4l31.5,4l18-26.6l-5-4.5l12.5,0.5l6-4l-0.5-15l-25-23.1l9.5-2l8.5-21.6l-21.5-11l1.5-14l12-2
	v-15.7l-1.5-15.9h-9.5v-11.5l-8.5-2l-12.5-25.1l19.5-7l-1-11.5l12.5-1l0.5-3l18,0.5l-5-7l10.5-3.5l-5.5-13l9-8.5l-16-23.5l28.5-28.6
	l26,12.5l33.5-16.5l18.5,7l-19.5,3v9l14.5,7.5l7.5-17l3.5,6l-15,21.6l37.5,53.1l75,8.5l33.5-21.6l6,5l-24,21.5l16,27.1l1.5,27.6
	l18,3.5l35.5-13l-3.5,7l22.5-0.5l-1,24.6L2948.8,1074z"/>
<path id="_186736624" inkscape:label="#_Elektrogorsk" class="st0" d="M2582.2,926.6l16.5-0.5l22,6l15.5,20.6l-4,3.5l5.5,13
	l-10.5,3.5l5,7l-18-0.5l-33.5,0.5l-1.5-13.5l4.5-1L2582.2,926.6z"/>
<path id="_186740488" inkscape:label="#_Shatura" class="st0" d="M2914.8,1199.3l18.5-43.1l33.5-49.1l-18-33.1h17l-0.5-39.1l36-1.5
	l22.5-12l13,15.5l19-2l-2-21.1l8-1l10-25.1l28.5,0.5l0.5,13.5l9-10l40,3.5l10.5,29.1l-13,35.1l25,37.1l10-3l21,31.6l9.5,1l19,26.1
	l-5.5,18l22,27.1l-6,23.6l-9.5-3.5l-4.5-1.5l2,51.6l57-2.5l3,19.6l12,4.5v0.5l-1,35.6l-20-3.5l-4.5,38.6l15.5,17.6l13,45.1l-14,11
	l13.5,16l0.5,1l-11,5.5l-12.5,37.6l-50.5,18l-30.5,35.6l-22.5-7l-75,19l-1,1.5l-35.5,66.7h17l28.5-21.1l5,9.5l5.5,9.5l14,2.5
	l-27.5,94.7l-24.5-22.1l2,22.6l-40.5,1l-10.5-17l-16-1.5l12.5-32.1l10,2l18-13.5l-8.5-21.1l12.5-26.1l13.5-17l-24-18.1l1.5-12
	l-10-5.5l-15-41.6l-30,2l-8.5,5.5l-15-6l-1.5-16l-31.5,1.5l-9-16l12-11.5l-7.5-9.5v-34.1l10-0.5l21-19l-5.5-12l13.5-2.5l-3.5-24.1
	l19-2l-0.5-15.5l18.5-0.5l0.5-26.6l-14-10.5l-4-21.1l9-6l-107.5-1.5l-8.5-9l5-19.1l-8-4.5l-10-37.1l25,3l29.5-24.6L2914.8,1199.3z"
	/>
<path id="_186751448" inkscape:label="#_Voskresensk" class="st0" d="M2466.7,1445.4l-27-22.1l13.5-23.6l11-1.5l-4-18.6l-35,7.5
	l-1-19.5l-12.5-9.5l1.5-16.5l-25-11l9.5-14.5l1-22.5l28,6l9-43.6l25.5-17.5l54-0.5l12,11.5l-7.5,12.5l11.5,11l-2.5,15.5l44-12.5
	v21.1l-13,16l16.5,12.5l24-5.5l6,46.1l39.5,3.5l-2,12.5l5,0.5l12,25.1l-4,26.1l18,4l-11,18.5l-21,7l23.5,5.5l-13.5,13.5l4.5,16
	l-11.5,13.5l-39.5-12l-13.5,20.1l-51,3.5l-6.5-10.5l-33,23.6l-18.5-14l-11,5l6.5,11.5l-32.5-12.5l1.5,7l-11,0.5l-1.5-9.5l-8.5-5
	l25-15l-0.5-27.6l13.5-13.5L2466.7,1445.4z"/>
<path id="_186754144" inkscape:label="#_Egoryevsk" class="st0" d="M2720.7,1336.2l-10-20.6l8.5-7l4.5-21.1l46.5,2l6,9.5l14.5-9.5
	l3-25.6l43,4.5l47.5-6l8,4.5l-5,19.1l8.5,9l107.5,1.5l-9,6l4,21l14,10.5l-0.5,26.6l-18.5,0.5l0.5,15.5l-19,2l3.5,24.1l-13.5,2.5
	l5.5,12l-21,19l-10,0.5v34.1l7.5,9.5l-12,11.5l9,16l31.5-1.5l1.5,16l15,6l8.5-5.5l30-2l15,41.6l10,5.5l-1.5,12l24,18.1l-13.5,17
	l-12.5,26.1l8.5,21l-18,13.5l-10-2l-12.5,32.1l-6-1l-2,29.6l-12.5-8l-31.5-26.6l0.5-29.1l-15.5-0.5l0.5-15l-21-43.6l-64-1.5l-28-2.5
	l-22.5-10.5l-9.5,13l-22-5.5l3-14l-22.5-5.5l-11.5-38.1l-67,23.6l-19.5-44.1l26.5-21.1l-24.5,5l-13.5-12l-4.5-16l13.5-13.5
	l-23.5-5.5l21-7l11-18.5l-18-4l4-26.1l-12-25.1l17,1l23-13.5l-0.5-36.6L2720.7,1336.2z"/>
<path id="_186756552" inkscape:label="#_Kolomna" class="st0" d="M2652.7,1694l32,35.6l-2.5,20.5l-50.5,2l-31.5-36.6l-14-0.5l6,43.1
	l7,17l-11.5,21.6l17,1l-9,7l13,11.5l-25,2.5l23.5,13l-0.5,22.6l-25.5-1.5l9.5,42.1l-21-7.5l-0.5,27.6l-34-16.5l-61.5,55.6l-25-1
	l10.5-34.6l-32.5-0.5l12-12l-19-38.1l9.5-15l-36-4l-22,8l-9.5-3.5l16.5-22.1l24-7l1-20.6l-40-15.5l-5.5-36.1l11-1.5l5-24.6l24,1.5
	l3-10l14-4l6-23.1l-7.5-6l10.5-18.5l7,4l2.5-22.5l-9,5l-2.5-14.5l-10,1.5l13.5-18.6l-7.5-9l-5,11.5l-11-10l19-23.1l15,4.5l1.5-12
	l-12-18.5l-9.5-2.5l2.5-17.5l15.5,4l3.5-14l11-0.5l-1.5-7l32.5,12.5l-6.5-11.5l11-5l18.5,14l33-23.6l6.5,10.5l51-3.5l13.5-20.1
	l39.5,12l11.5-13.5l13.5,12l24.5-5l-26.5,21.1l19.5,44.1l67-23.6l11.5,38.1l22.5,5.5l-3,14l22,5.5l9.5-13l22.5,10.5l28,2.5
	l-46.5,37.1l-51.5-21.1l-37,47.6l11.5,12l-10.5,24.1l-44-10.5l-32-27.1L2652.7,1694z"/>
<path id="_186760584" inkscape:label="#_Istra" class="st5" d="M1344,821.4l-3-32.1l17.5-8l12.5,19l11.5-10.5l53-1.5l8-11.5l14,9
	l43-13l18.5,6.5l4.5-7.5l13.5,2l-5.5-21.6l24.5,9l4-9l-8-5.5l7-5l7,6.5l3.5,8.5l18.5,14l16-2.5l25,39.6v12.5l75.5,14.5l8.5,29.6
	l29-8l-2.5,37.1l13,3l6.5,20l7.5-2l-5.5,11l10.5-5l8.5,12.5l-9,4.5l8.5,10.5l14.5,4.5l3,16l-16.5,21.6l9.5,11l-4,17l-11,1.5l-2,18
	l-24,12l7.5,8l-2,2l-30.5,0.5l-33.5-15l-16-27.1l-23.5,7l-12-17.5l-38,3.5l-9.5-11l-43-4l-22.5,32.6l-11.5-3l-0.5,19l-27.5-12.5
	l-12,14.5l-9-4l-2,9l-11-7l-2-15l-16.5,8l-1.5-28.1l13,0.5l13-15l-13-10.5l34-11l-30-48.6l-15,1l1.5-16l23,0.5v-28.1l-9-1.5l-3-11
	l-9-4.5l-6,8l1,6l-3,5h-5.5l3.5-14l-39-5.5l4,16.5l-14.5,8.5l-3.5-37.6l-8.5-1l-4-12l-6.5,3l-0.5-13L1344,821.4z"/>
<path id="_186765040" inkscape:label="#_Lukhovitsy" class="st0" d="M2682.2,1750.2l2.5-20.5l-32-35.6l5.5-21.6l32,27.1l44,10.5
	l10.5-24.1l-11.5-12l37-47.6l51.5,21.1l46.5-37.1l64,1.5l21,43.6l-0.5,15l15.5,0.5l-0.5,29.1l31.5,26.6l8.5,15l-2.5,6h-40.5l-2.5,13
	l-31,33.1l0.5,33.6l-32,29.1l13.5,16l-13,10l-7.5,15l-9.5,19.5l3,5l-14.5,8.5l1.5,9l-9,8l29.5,4l-22,17.6l5,9.5l-19-6l-1-8l-29.5,4
	l-4,16.5l-7.5,7l-14-5.5l12.5-3l14-29.1l-21,1.5l-3-8l12-6.5l-4-31.1l-10.5,5l-16.5-15l-8-20.1l-30,10.5l-18-23.1l-59.5-3
	l-14.5-26.1l-21.5,10.5l8-27.1l-30,4l-3-10l-13-11.5l9-7l-17-1l11.5-21.6l-7-17l-6-43.1l14,0.5l31.5,36.6L2682.2,1750.2z"/>
<path id="_186864912" inkscape:label="#_Taldom" class="st0" d="M1834.1,190.3l17-24.1l28,11l4-15.5l50-15.5l11.5,21.1l22.5-44.6
	l18.5-12l-8.5-21.1l21.5-7l-24.5-16l8-23.1l50.5-19.5l2-9l13.5,4.5l13.5-17.7l25.5,9.5l-2.5,16h16l7.5,19.5l13.5-2.5l4.5,7.5l13-3
	l14,26.6l16.5-10l29.5,19.5l7,85.7h28.5l-1.5,15l8,1l-2,8.5l-16,15.5l11,25.1l-17.5,16.5l-20-23.1l-31,16l-14.5,1.5l-21,21.6l-23-4
	l-25,14l-2.5,19.5l19.5,29.6l-11,20l-27,16l-25.5,39.5l-27.5-8l-18.5-14.5l-3-12l-71.5,25.6l-13.5-43.1l-74.5-94.7l-30.5-22.1
	l27.5-16l3.5-15l9-1.5L1834.1,190.3z"/>
<path id="_186867008" inkscape:label="#_Dubna" class="st0" d="M1791.6,160.2l4.5,9.5l18.5-1l2-12l14.5-1.5l-2.5,12h-3.5l-3.5,3
	l8,19.6l4.5,0.5l2.5,11l-9,1.5l-3.5,15l-27.5,16l-53.5-49.6l19-6l-2.5-7L1791.6,160.2z"/>
<path id="_186871336" inkscape:label="#_Stupino" class="st5" d="M2074.1,1664.5l-9.5-30.6l-1-19l-1-14.5l5.5-12l28.5,11.5l-1,6.5
	l28,14.5l5-11l-6.5-15l13-2l1.5-9.5l12.5,14l14-3.5l14-10l-5.5-20.5l-8.5,4l-4-18.5l7-10.5l-8-5l5.5-16l17.5,8l-7.5,7l11.5,17.5
	l32-25.1l14,2.5l19-18.1l11-3l2-11.5l12.5-6.5l23.5,3l25-6l5,5l19-5.5l-1,18.1l7.5,5.5l29.5-15l23,2.5l6,22.6l14,1.5l8.5,5l1.5,9.5
	l-3.5,14l-15.5-4l-2.5,17.5l9.5,2.5l12,18.6l-1.5,12l-15-4.5l-19,23.1l11,10l5-11.5l7.5,9l-13.5,18.5l10-1.5l2.5,14.5l9-5l-2.5,22.6
	l-7-4l-10.5,18.6l7.5,6l-6,23.1l-14,4l-3,10l-24-1.5l-5,24.6l-11,1.5l5.5,36.1l40,15.5l-1,20.6l-24,7l-16.5,22.1l-13.5-9l-11,9.5
	l-22.5-11.5l-21.5,7.5l-8,14.5l-26.5,21.6l-18.5-12l-18-3.5l-26.5,2l-9.5-2l-11-8.5l-13,0.5l-4-21.6l-42.5-18l-14.5-29.6l11.5-16
	l-16.5-5l3-21.6l-23.5-3l3.5-15.5l-21.5-8.5l-2.5-19.6l25.5-5.5l-44-31.6L2074.1,1664.5z"/>
<path id="_186875072" inkscape:label="#_Zaraysk" class="st0" d="M2590.7,1895l-9.5-42.1l25.5,1.5l0.5-22.6l-23.5-13l25-2.5l3,10
	l30-4l-8,27.1l21.5-10.5l14.5,26.1l59.5,3l18,23.1l30-10.5l8,20.1l16.5,15l10.5-5l4,31.1l-12,6.5l3,8l21-1.5l-14,29.1l-12.5,3
	l14,5.5l7.5-7l3.5,16l-5.5,6.5l13.5,8l-11,31.6l-25,2.5l-13.5-19.6l-4.5,16l-10-2l-4.5,14l-12-16.5l-9.5,11l-33.5-2.5l-17.5,32.1
	l-10-8.5l-5-20.1l-39.5,18l-6-12l-13,15l2.5,10l-30.5,8.5l-2.5-26.1l-30.5-23.6l-23.5,7.5l-8.5-12.5l-26.5,9.5l-17.5-17.5l18-35.1
	l-21.5-13l-6-28.6l61.5-55.6l34,16.5l0.5-27.6L2590.7,1895z"/>
<path id="_186876560" inkscape:label="#_SerebryanyePrudy" class="st0" d="M2402.7,2201.8l7-29.6l-13.5-24.1l20-14.5l16.5,7
	l-7.5-15.5l10,5.5l-1-17.6l30-20.1l-18-37.1l25-7l3-14.5l9-3.5l17.5,17.5l26.5-9.5l8.5,12.5l23.5-7.5l30.5,23.6l2.5,26.1l30.5-8.5
	l3.5,10l-10,3.5l8.5,13l-19.5,9l2.5,18.1l23-6l3,11l-20,3.5l-7.5,10.5l4,15l-9,5l5,34.6l22.5-3.5l19,17l13-1l11.5-1l5.5,28.6
	l-34,14.5l-0.5,2.5l-1.5,17.6l-18-21.6l-8,17.6l-22.5-1l2.5,10.5l-33.5,12l-3.5,52.1l8.5,2l-3,15.5l-26,12.5l-9-4.5l-6.5-13
	l-56.5-16l-5.5-43.1l11-47.1l-21.5,0.5l-17-16l10-6.5l-3-5.5l-6.5-10.5l-10-1l-5-13L2402.7,2201.8z"/>
<path id="_186879704" inkscape:label="#_Kashira" class="st0" d="M2285.2,1864.5l8-14.5l21.5-7.5l22.5,11.5l11-9.5l13.5,9l9.5,3.5
	l22-8l36,4l-9.5,15l19,38.1l-12,12l32.5,0.5l-10.5,34.6l25,1l6,28.6l21.5,13l-18,35.1l-9,3.5l-3,14.5l-25,7l-7.5-17.5h-20.5
	l-15.5,13l-16-14l-3.5-3l-14,5.5l-16.5-25.1l-16.5,14.5l-19-14.5l-2.5-15l-21.5-1l-15.5,12.5l-10.5-28.6l-20,7l-24-15.5l-1.5-9.5
	l9.5,1l-2-25.6l-14-11.5l1.5-4.5l-18.5-11l5-28.1l-7-5.5l-0.5-7l26.5-2l18,3.5l18.5,12L2285.2,1864.5z"/>
<path id="_186883408" inkscape:label="#_Serpukhov" class="st0" d="M1865.6,1689l22.5-15.5l24,10l8.5-17.6l10,10l30,10l4.5,38.1
	l23.5-15.5l-2,23.6l29-22.1l22,0.5l10.5,11l9.5,2l21.5,8.5l-3.5,15.5l23.5,3l-3,21.6l16.5,5l-11.5,16l14.5,29.6l42.5,18l4,21.6
	l-23.5,7.5l-56,9.5l9.5,5l8,14.5l-8,4.5l0.5,16h6l-1,13.5l-8.5,1l-1.5,14l3.5,5l-22,23.1l-12-1l-6.5,6.5l-28-21.6l-28-5l-2.5,13
	l-9-5l-0.5-8.5l2.5-5l2.5-6.5l-6-18l-17.5-2l2-6l-9-3.5l3-11.5l-7.5-13l-7.5,2.5l-8-17l-4,1l-1-5.5l-15,4l-10.5-3.5l-8,5l-2.5-13.5
	l-7.5,1.5l-1.5,14l-11-11l-5,8l-12-10.5l-0.5,7.5l-0.5,13l-18.5-7.5l8-10.5l0,0l-10-4.5l-10,6.5l-6.5-7.5l10-6l-3-4l4-10.5l9.5-5.5
	l-9.5-11.5l1-10l-31.5,3l-2-7.5l8-11l-11.5-13l-2-10l-5.5-10l7,2.5l1.5-6l-21-21.1l9.5-8l-16.5-23.6l-3.5,1.5l-8.5-8.5l1-9.5
	l-9-11.5l20-5.5l50.5,12l5.5,13.5l14-27.6L1865.6,1689z"/>
<path id="_186891288" inkscape:label="#_Domodedovo" class="st0" d="M2054.6,1438.9l-1.5-34.6l-32.5-7l-8-10l3.5-15l16-3.5l-9-7.5
	l15.5-24.6l-1.5-8.5l15-7.5l14.5-29.1l21,10l4-10l32,8.5l-2.5-25.6l11,12.5l13-19.5l3,9.5l10.5,5.5v8l-6.5-3l11,27.1l15.5-5.5
	l11,36.1l-18.5,11.5l16,13.5l4.5-6l8,5l11,30.6l6.5-5.5l13.5,12l6,14.5l-10.5,14l-8-2l-5,10l-4-5l-5.5,5.5l10.5,12.5l10.5,2.5
	l-1.5,9l19.5-4l4.5-11.5l12.5,6l-1.5,10.5l9,1l-6.5,11.5l2.5,13.5l-2,11.5l-11,3l-19,18.1l-14-2.5l-32,25.1l-11.5-17.5l7.5-7
	l-17.5-8l-5.5,16l8,5l-7,10.5l4,18.5l8.5-4l5.5,20.5l-14,10l-14,3.5l-12.5-14l-1.5,9.5l-13,2l6.5,15l-5,11l-28-14.5l1-6.5
	l-28.5-11.5l-5.5,12l1,14.5l-31-2l-5,4.5l-8-21l21.5-27.1l-13-6.5l25-8l-14.5-40.6l16.5-4l-11.5-20.6l-9.5,4.5l-4-8l16-23.6l-6.5-5
	l8-7.5l8.5,11l6-5L2054.6,1438.9z"/>
<path id="_186892232" inkscape:label="#_Podolsk" class="st4" d="M1905.1,1334.2l1.5-16.5l8,5l11.4-14.9l11.7-5.8l3.1,14.7l18.5,6.8
	l-5.6,9.4l3,9.7l18.3,4.8l-2.4-14.5l11.6-7.3l-1.8-11.9l7.4-0.6l2.9-6.7l3.1-5.9l5.2-3.7l11,3l3-19.5l23,4.5l21.5-13.5l7,20.5
	l-14.5,29.1l-15,7.5l1.5,8.5l-15.5,24.6l9,7.5l-16,3.5l-3.5,15l8,10l32.5,7l1.5,34.6l7.5,17l-6,5l-8.5-11l-8,7.5l-19.5-4.5l1,24.6
	l-14.5-5l-5,23.6l-8.5-12.5l-11,14l-16-28.6l-20.5,25.1l-36,16.2l6-41l3.4-1.8l-7.1-9.4l-7.5,0.3l0.8-6.5l-0.9-5.5l4,1.7l5.8,3.4
	l3.3-3.3l5.4,0.5l2.6-4.2l-1.6-5.6l-9.9-11.3l8.4-5.7l0.9-6l9.2-4.3l-8.2-6.8l8-10l3.6,0.5l4-3.2l-0.4,4.1l2.5,3.7l4.3-5l5.7,5.5
	l-6.8-41.6l-14.7-2.1l-0.8-8.8l-5.1-2.9l-19-1.6L1905.1,1334.2z"/>
<path id="_186897200" inkscape:label="#_NaroFominsk" class="st0" d="M1760.7,1202.5l-10.1,10.3l-26.5,5l-15.5,15.5l1-11.5l-47,6
	l-10.5,14.5l-31.5,2.5l0.5,18l-20.5,17l-44,7.5v9.5l-24-12.5l-6.5,12.5l-4-14.5l-21.5-1.5l-1.5,26.1l-34.5-36.1l-25.5,24.1l-0.5,21
	l15.5,20.1l-28.5,10l1.5,29.1l-17-4l-35,13l-6-18l-28.5,20.1l-10-18.1l-35.5-2l-8-17l-21.5,3l-35.5,33.6l-5,29.6l8.5-14.5l12.5,4
	l-8,34.6l-30,11.5l-11-11.5l-37.5,8l-2,33.6l-9.5,1l12.5,28.6l8.5,1.5l7.5,16.6l14-11l10,3.5l8.5,17.1l15.5,5l-2-6l11-7l0.5,10.5
	l31,8.5l8,24.1l9.5,4.5l16.5-19l35.5,4l8,19.1l23-15.5l-7-3l7.5-16.5l13-12.5l-2.5-5l6-24.6l17.5,5l1.5-9.5l-1.5-3l-5-14l8.5,1
	l3.5-16.5l13-8l8,14.5l12.5-2l-0.5-7l22-2.5h0.5l6,8l12-13.5l-4-9l28.5-14.5l5-11.5l12,4.5l-9,11l9.5,13.5l3,4l-11,2.5l3,15.5
	l-6.5,9.5l11.5,16l14.5-14l24,16l32-6.5l16.5,23.1l-3,13l11,12l-6,14.5l11.5,3l1,0.5l21.5-22.6l-7-8l42-10.5l12-27.6l33.5-16.1
	l-23-5.5l0.1-21.7l-11-7.7l-22.9-29l-24.5-23.8l-3.1-12.5l-0.4-10.5l-8.2-3.6l4.6-9.4l-9.1-2.3l-2-10.9l-6.9-5l1.3-21.3l4.3,0.4
	l3-37.2l56,0.7l3.6,11.8l15.1,3.4l1.1,32.8l12.6,7.3l8.5-6.8l7.5-6.8l7.9-0.5l3.3,7.6l21.5,8.7l21.1,4.8l-27.2-25.8l21.9-3.6
	l-8.5-13.3l8.5-9.5l-5.6-10.7l2.2-34l-3.8-14.5L1760.7,1202.5z"/>
<path id="_186915824" inkscape:label="#_Chekhov" class="st0" d="M1790.6,1523.6l37.5-19.5l-3,14l58,3.5l62.5-27.6l20.5-25.1
	l16,28.6l11-14l8.5,12.5l5-23.6l14.5,5l-1-24.6l19.5,4.5l6.5,5l-16,23.6l4,8l9.5-4.5l11.5,20.5l-16.5,4l14.5,40.6l-25,8l13,6.5
	l-21.5,27.1l8,21.1l5-4.5l31,2l1,19l9.5,30.6l-37.5,2.5l44,31.6l-25.5,5.5l2.5,19.5l-9.5-2l-10.5-11l-22-0.5l-29,22.1l2-23.6
	l-23.5,15.5l-4.5-38.1l-30-10l-10-10l-8.5,17.5l-24-10l-22.5,15.5l-26.5-16l-14,27.6l-5.5-13.5l-50.5-12l-4.5-14.5l4.5-17.5l-10.5,2
	l-1.5-9l-10.5-4.5l-10.5,2l0.5-29.6l21.5-2.5l-0.5-5l22.5-1.5l-1.5-9.5l16.5-4L1790.6,1523.6z"/>
<path id="_186919456" inkscape:label="#_Molodezhny" class="st0" d="M1622,1429.4l2.5,20.6l-25.5,1l0.5-16L1622,1429.4z"/>
<path id="_186921776" inkscape:label="#_Protvino" class="st0" d="M1841.6,1834.9l-9.5,5.5l-4,10.5l3,4l-10,6l-10,1.5l-18.5-15
	l4.5-9l-4-3l4-8l-3.5-4.5l6-14l2,7.5l31.5-3l-1,10L1841.6,1834.9z"/>
<path id="_186923280" inkscape:label="#_Puschino" class="st0" d="M2023.1,1864.5l11.5,4l4,24.6l-23.5,9.5l-19-15.5l-16.5-7
	L2023.1,1864.5z"/>
<path id="_186924016" inkscape:label="#_Klin" class="st0" d="M1330.5,492.6v-9v-2l16,2.5L1357,463l34.5-10.5l36.5-33.6l6.5,11.5
	l47,1.5l0.5-24.1l24,0.5l10.5-16.5l27.5,19.5l-7.5-23.6l80-45.6l-5.5-19l39.5,17l3.5-9l7,12l41,9.5l-9,15l50,8.5l18,5.5l6,9.5
	l-14,11.5l-25.5,0.5l-9.5,19.5l-20.5,20l28.5,27.6l-3.5,16l11,8.5l-15.5,3l0.5,7.5l8,1l-6,6l2,14.5l-13,1.5l10.5,25.1l-26.5,0.5
	l23,17l-2,11.5l-23.5-10l-23,5v15l-18-1l3,15l-11.5,14.5l-1.5,25.1l-26,3l-3.5,7l-28,10.5l3,14l-7,8.5l5.5,4l-12.5,11l18.5,15
	l-13,34.1l-2.5-8l-8.5,2.5l-7-6.5l-7,5l8,5.5l-4,9l-24.5-9l5.5,21.6l-13.5-2l-4.5,7.5l-18.5-6.5l-43,13l-14-9l-8,11.5l-53,1.5
	l-7-42.1l12.5-40.1l-44-23.6l2.5-18l-29,1l-17-31.1l21-3.5l-18.5-21.6l8.5-14h-22l-13-25.6l-20-19l5-45.6l12,3.5l10-29.1
	L1330.5,492.6z"/>
<path id="_186924944" inkscape:label="#_Mozhaysk" class="st0" d="M926.9,1058l17.5,3l8.5-19.1l22-4.5l8-8.5h13l6.5-21l26.5,3.5
	l-7,16l19,38.6l-24.5,18.1l25-3.5l1,10.5l49-4l7,17l12.5,3.5l4.5-17.6l18.5-7l11-0.5l-1.5,23.1l14.5,10l39-16l30,23.6l-8.5,17.5
	l20-4l-4.5,17.5l17,8l-7,14l15.5,2.5l6.5,34.6l14-12.5l19,27.1l11.5-9l36.5,63.2l-8,11l-24.5-2.5l7.5,20l-37.5,20.6l7,8.5l-4.5,9.5
	l-21.5,3l-35.5,33.6l-5,29.6l8.5-14.5l12.5,4l-8,34.6l-30,11.5l-11-11.5l-37.5,8l-2,33.6l-9.5,1l12.5,28.6l-6,8.5l-20.5,5
	l-14.5-10.5l3-12l-12.5,0.5l-25.5-33.6l-13,15.5l-5-10.5l-23,12.5l-14-10l-28-1.5l-5,14.5l6,6l-9,15l-12.5-7l-19,7l7,8.5l-24.5,3.5
	l-8.5,7l-19-7.5l-6.5,3l-9.5-8.5l-7.5-0.5l-2.5-14l-1.5-7.5l-19.5-2.5l-13.5-21.1l7.5-9.5l-23.5-20.1l9.5-1.5l8-18l-2-34.6l10-3
	l-4-16.5l16.5-14l-13-6.5l5-15l-12-8.5l1-13.5l14.5-7.5l-3-4.5l4.5-7.5l-5.5-14.5l17.5-9l-27.5-22.6l2.5-24.1l21.5-2l2.5,10
	l11.5-4.5l-2.5-13l13.5-1l-4-32.6l-16.5-6.5l-2.5-21l-12.5-5l9-29.6l-8-5.5l-8.5-24.6l2-11.5l18,4.5l-9-22.6l5.5-5l-3-13.5l31,1.5
	l-4.5,19l13.5,6L926.9,1058z"/>
<path id="_186929960" inkscape:label="#_Lotoshino" class="st0" d="M947.4,596.3l11.5-0.5l-13.5-19.5l18-6l-12-7l4-44.6l7,9l13-26.6
	l-4-1.5l-9.5-3.5l-8,14.5l-31.5,1l6-40.6l13.5-0.5l-16-14.5l3-12h17.5l8.5,10.5l-6,6.5l11.5,7.5h14l39-41.1h9l3.5,20.6l16-5.5l-2,9
	l17.5,3l-4,12l16.5,20.1l7-2.5l1.5,20.6l17,0.5l18-14.5l6.5,1v5.5l23.5,3.5l-13.5,5l3.5,7.5l10.5-5l3.5,12.5l41.5,1.5l2.5-6.5
	l46,2.5l12,14.5l-7,3l1,16l13,0.5l20,19l-19.5,3l-1.5,55.6l-27.5-6.5l-7,22.1l7.5,19l-44,7.5l-2.5,11.5l-56-5.5l-59.5,25.6l3,33.6
	l-17,9l-4-9l6.5-9.5l-14-5l-12,13l-16-25.1l-32.5,5l-4-6l9.5-18.5l-2-3l-10.5,2l-12.5-4.5l11.5-11.5l-16-13l-10,3l1,3l-8.5,5
	l-18-22.6l-0.5-7.5l-4.5-7.5l1.5-5l26.5,8.5l21.5-17L947.4,596.3z"/>
<path id="_186934568" inkscape:label="#_Ruza" class="st0" d="M1142.9,1035.4l14,29.1l14-42.1l32.5-8l3.5-10.5l52-6l5.5-32.6l9,33.1
	l8.5-2l-1-25.1l35.5-25.6l-23-7.5l17.5-10.5l-9.5-15l36-22.6l-1.5-10l-18.5-7.5l7.5-16.5l44,6l-2.5-10.5l8.5,1l3.5,37.6l14.5-8.5
	l-4-16.5l39,5.5l-3.5,14h5.5l6,25.6l-1.5,16l15-1l30,48.6l-34,11l13,10.5l-13,15l-13-0.5l1.5,28.1l16.5-8l2,15l11,7l2-9l9,4l14,15.5
	l-7.5,5l4.5,19.6l-6.5,13l28,39.1l-12,9.5l-1.5,27.1l17,14.5l-26,10l-22.5,24.6l-41,7l-15,14l5.5,13l-9,10l20.5,6.5l16,19.6l-0.5,21
	l15.5,20.1l-28.5,10l1.5,29.1l-17-4l-35,13l-6-18l-28.5,20.1l-10-18.1l-35.5-2l-8-17l4.5-9.5l-7-8.5l37.5-20.5l-7.5-20.1l24.5,2.5
	l8-11l-36.5-63.2l-11.5,9l-19-27.1l-14,12.5l-6.5-34.6l-15.5-2.5l7-14l-17-8l4.5-17.5l-20,4l8.5-17.5l-30-23.6l-39,16l-14.5-10
	l1.5-23.1l-11,0.5l11.5-9l-5-8.5l-25.5-13L1142.9,1035.4z"/>
<path id="_186941952" inkscape:label="#_Shakhovskaya" class="st0" d="M871.4,775.3l12.5-9l-11-10l-16,2.5l-2.5-18.5l16.5-9l-10-10
	l33-28.6l-7-6l7.5-10l-19.5-10l-4.5-19l45.5-13l4.5,7.5l0.5,7.5l18,22.6l8.5-5l-1-3l10-3l16,13l-11.5,11.5l12.5,4.5l10.5-2l2,3
	l-9.5,18.5l4,6l32.5-5l16,25.1l12-13l14,5l-6.5,9.5l4,9l17-9l6.5,13.5l-16,11l-15.5,50.1h32.5l-14.5,15.5l7.5,31.6l19.5,6.5
	l-3.5,26.1l-16,14l8,20.6l-39,36.1l11.5,30.1l-21.5,19l-26.5-3.5l-6.5,21h-13l-8,8.5l-22,4.5l-8.5,19l-17.5-3l-7.5,5l-13.5-6
	l4.5-19.1l-31-1.5l-1.5-6.5l-23.5-4l3.5-15.5l-21.5-29.1l-2-13l-17.5-26.6l10.5-13.5l-12.5,6.5l-3.5-18.5l-27.6-30.7l27-47.6l11,2
	l11-19l-3-13.5l16.5,6.5l4-9l6-12.5l11.5,6.5l7.5-18.5L871.4,775.3z"/>
<path id="_186945080" inkscape:label="#_Volokolamsk" class="st0" d="M1069.9,905.6l16-14l3.5-26.1l-19.5-6.5l-7.5-31.6l14.5-15.5
	h-32.5l15.5-50.1l16-11l-6.5-13.5l-3-33.6l59.5-25.6l56,5.5l2.5-11.5l44-7.5l-7.5-19l7-22.1l27.5,6.5l1.5-55.6l19.5-3l13,25.6h22
	l-8.5,14l18.5,21.6l-21,3.5l17,31.1l29-1l-2.5,18l44,23.6l-12.5,40.1l7,42.1l-11.5,10.5l-12.5-19l-17.5,8l3,32.1l11.5,8l0.5,13
	l6.5-3l4,12l2.5,10.5l-44-6l-7.5,16.5l18.5,7.5l1.5,10l-36,22.6l9.5,15l-17.5,10.5l23,7.5l-35.5,25.6l1,25.1l-8.5,2l-9-33.1
	l-5.5,32.6l-52,6l-3.5,10.5l-32.5,8l-14,42.1l-14-29.1l-28,17l25.5,13l5,8.5l-11.5,9l-18.5,7l-4.5,17.5l-12.5-3.5l-7-17l-49,4
	l-1-10.5l-25,3.5l24.5-18l-19-38.6l7-16l21.5-19l-11.5-30.1l39-36.1L1069.9,905.6z"/>
<path id="_186946608" inkscape:label="#_Voskhod" class="st0" d="M1447,870l3,11l9,1.5v28.1l-23-0.5l-6-25.6l3-5l-1-6l6-8L1447,870z
	"/>
<path id="_186947840" inkscape:label="#_Krasnoznamensk" class="st0" d="M1727.5,1205.8l-10-7.5l27.5-6.5l5.5,21l-26.5,5l-13.5-2
	l5-10.5l9.5,4L1727.5,1205.8z"/>
<path id="_186951328" inkscape:label="#_Balashikha" class="st0" d="M2110.1,960.2l9,7.5l8.5-0.5l33-12l3.5,3l13.5,11.5l15.5,0.5
	l1,8l-2.5,2.5l8.5,6.5l12.5-8l19,15l7.5,13.5l5,24.6l-7.5,15l27,7.5l0.5,8l17.5,9.5l-4.5,7.5l-16-7.5l-8,4.5l2,5.5l5.5-1l8.5,19.6
	l18.5,2l-2,8l-14.5,1.5l-7.5-7l-14.5,8v2.5l-7.5,1l-22-7.5l-3-6l-13.5,8l-5.5-10l-11-7l-3.5,0.5l-15-8l-3.5,5l-20,1.5l-2-9.5
	l-0.5-2.5l10-2.5h1.5l-1.5-9l0.5-6.5l-2.5-1l-2-5.5l4-1.5l-1-3.5l-9-3.5l0.5-7.5l-12,4.5l-0.8-17.9l-3.2-25.2l-30-27.6v-13.5
	L2110.1,960.2z"/>
<path id="_186992352" inkscape:label="#_Lubertsy" class="st2" d="M2139.1,1123.1l-0.5-0.5l3-2.5l-6.5-6.5l2.5-2l7.5,6.5l8-9
	l3.5-0.5l4.7-0.1l2,5.1l3.1-1.1l1.9,5.9l4.1-2.3l-7,10.5l1.7,4.8l0.6,4.6l22,4.2l-0.1-17l-8.3-4.8l8.3-2.7l-8.1-7.2l11.1,0.9l-2-3.6
	l3.3-1.9h-5.5l-0.8-3.7l-5.5-0.5l1.1-4.7l3.5-0.5l11,7l5.5,10l13.5-8l3,6l22,7.5l-1,7l11,10.5l-4,11l-5-0.5l-6.5,10l-6.5-1l2,9
	l-10.5,7.5l1,10.5l-14,2.5l-18.5-12l-4.5,8l12,8l8-1.5l-1.5,8l-11.5,7.5l7.5,7v12l5,1l3,10l-11.5-0.5l-8-5l-11,3.5l-4-4.5l-10-30.1
	l-17.5,5l5-13.5l-7.5-11l2.5-3.5l-2-2l15,1v-8.5l-5.5-14l-14.5-12l2.5-12L2139.1,1123.1z"/>
<path id="_186997536" inkscape:label="#_ZvezdnyGorodok" class="st0" d="M2265.7,953.2h-3l-0.5-3.5l-3.5,0.5l1.5,5l-3,2.5l1.5,1
	l11.5,7.5l8-11.5l-11.5-6.5L2265.7,953.2z"/>
<path id="_186999008" inkscape:label="#_Vlasikha" class="st0" d="M1794.6,1135.2l-0.5-17.5h17v11l-12.5,7L1794.6,1135.2z"/>
<path id="_186999872" inkscape:label="#_Zhukovsky" class="st0" d="M2280.2,1245.4l-13.5,5l-4,3.5l-12-14l-12.5-12.5l-7.5,4.5l-4-3
	l0.5-9.5l-5-6.5l1-7l16.5-3.5l3.5-10.5l18.5-1.5l17,12v12l15,11.5l-5,18.5l21,18l-6,7.5L2280.2,1245.4z"/>
<path id="_187001576" inkscape:label="#_Fryazino" class="st0" d="M2242.6,886l1.5,12.5l-11.5,6l-2-1.5l2.5-3.5l-16-13.5l-5.5-12
	l1.5-1.5l8,4.5l5.5-4.5l3-5.5l21.5,9.5l-1.5,5l-9.5-2.5l-1.5,3L2242.6,886z"/>
<path id="_142580000" inkscape:label="#_Border" class="st6" d="M2061.6,1.9l-13.5,17.5l-13.5-4.5l-2,9l-50.5,19.6l-8,23.1l24.5,16
	l-21.5,7l8.5,21.1l-18.5,12l-22.5,44.6l-11.5-21.1l-50,15.5l-4,15.5l-28-11l-17,24l-4.5-0.5l-8-19.5l3.5-3h3.5l2.5-12l-14.5,1.5
	l-2,12l-18.5,1l-4.5-9.5l-32,11l2.5,7l-19,6l53.5,49.6l-10,5.5l1,10l-14,4.5l17,13.5l-2.5,8l-20.5,9.5l11.5,22.1l-7,12l13.5,11.5
	l-27,43.1l-5-3.5l-7.5-5l-3,11l-50-8.5l9-15.1l-41-9.5l-7-12l-3.5,9l-39.5-17l5.5,19l-80,45.6l7.5,23.6l-27.6-19.3l-10.5,16.6
	l-24-0.5l-0.5,24.1l-47-1.5L1428,419l-36.5,33.6l-34.5,10.5l-10.5,21.1l-16-2.5v2v9l-47-11.5l-10,29.1l-12-3.5l-5,45.6l-13-0.5
	l-1-16l7-3l-12-14.6l-46-2.5l-2.5,6.5l-41.5-1.5l-3.5-12.5l-10.5,5l-3.5-7.5l13.5-5l-23.5-3.5v-5.5l-6.5-1l-18,14.5l-17-0.5
	l-1.5-20.5l-7,2.5l-16.5-20.1l4-12l-17.5-3l2-9l-16,5.5l-3.5-20.6h-9l-39,41.1h-14l-11.5-7.5l6-6.5l-8.5-10.5H929l-3,12l16,14.5
	l-13.5,0.5l-6,40.6l31.5-1l8-14.5l9.5,3.5l4,1.5l-13,26.6l-7-9l-4,44.6l12,7l-18,6l13.5,19.6l-11.5,0.5l18,24.6l-21.5,17l-26.5-8.5
	l-1.5,5l-45.5,13l4.5,19l19.5,10l-7.5,10l7,6l-33,28.6l10,10l-16.5,9l2.5,18.6l16-2.5l11,10l-12.5,9l4,5l-7.7,18.4l-11.5-6.5
	l-6,12.5l-4,9l-16.5-6.5l3,13.5l-11,19.1l-11-2l-27,47.6l27.5,30.6l3.5,18.5l12.5-6.5l-10.5,13.5l17.5,26.6l2,13l21.5,29.1
	l-3.5,15.5l23.5,4l1.5,6.5l3,13.5l-5.5,5l9,22.6l-18-4.5l-2,11.5l8.5,24.6l8,5.5l-9,29.6l12.5,5l2.5,21.1l16.5,6.5l4,32.6l-13.5,1
	l2.5,13l-11.5,4.5l-2.5-10l-21.5,2l-2.5,24.1l27.5,22.6l-17.5,9l5.5,14.6l-4.5,7.5l3,4.5l-14.5,7.5l-1,13.5l12,8.5l-5,15l13,6.5
	l-16.5,14.1l4,16.5l-10,3l2,34.6l-8,18.1l-9.5,1.5l23.5,20l-7.5,9.5l13.5,21.1l19.5,2.5l1.5,7.5l2.5,14.1l7.5,0.5l9.5,8.5l6.5-3
	l19,7.5l8.5-7l24.5-3.5l-7-8.5l19-7l12.5,7l9-15l-6-6l5-14.5l28,1.5l14,10l23-12.5l5,10.5l13-15.5l25.5,33.6l12.5-0.5l-3,12
	l14.5,10.5l20.5-5l6-8.5l8.5,1.5l7.5,16.6l14-11l10,3.5l8.5,17l15.5,5l-2-6l11-7l0.5,10.5l31,8.5l8,24.1l9.5,4.5l16.5-19l35.5,4
	l8,19.1l23-15.6l-7-3l7.5-16.5l13-12.5l-2.5-5l6-24.6l17.5,5l1.5-9.5l-1.5-3l-5-14l8.5,1l3.5-16.5l13-8l8,14.5l12.5-2l-0.5-7l22-2.5
	h0.5l6,8l12-13.5l-4-9l28.5-14.5l5-11.5l12,4.5l-9,11l9.5,13.5l3,4l-11,2.5l3,15.5l-6.5,9.5l11.5,16l14.5-14l24,16l32-6.5l16.5,23.1
	l-3,13l11,12l-6,14.5l11.5,3l1,0.5l21.5-22.6l-7-8l42-10.5l12-27.6l33.5-16.1l-23-5.5l0.1-21.7l-11-7.7l-22.9-29l-24.5-23.8
	l-3.1-12.5l-0.4-10.5l-8.2-3.6l4.6-9.4l-9.1-2.3l-2-10.9l-6.9-5l1.3-21.3l4.3,0.4l3-37.2l56,0.7l3.6,11.8l15.1,3.4l1.1,32.8
	l12.6,7.3l16-13.6l7.9-0.5l3.3,7.6l21.5,8.7l21.1,4.8l-27.2-25.8l21.9-3.6l-8.5-13.3l8.5-9.5l-5.6-10.7l2.2-34l-3.8-14.5l-13.3-24.9
	l5.9-5.2l8.5,6l1.5-9.5l21,4.5l6-13.5l9-4l3.5,3l0.5-2l3,4l12-12.5l-3-8.5l18-8l7.5,1.8l1.6-9.4l3.8,0.5l-0.5,4.3l-3.2-0.2l-0.9,4.9
	l11.7,3.1l6.5-16.5l5.5,6.5l2.5-3.5l2-11.5l13,1l0.6-11.5l7.4,11l6.5-8.5l3,5l4-3l-4-11l-5.8-9.9l-19.1,22.3l-13.3-4.4l7.3-12.2
	l2.1,6.3l2.3-7.9l6.3-6.7l8.4,5.7l1.7-8.7l-2.2-5.5l-8.2-24.8l0.5-37.1l8.5-14.5l1-5l-3.5-0.5l-2.5,6h-1.5l-1-5l2-4.5l3.5,2
	l-0.4,1.2l1.7-4.1l5.2-13.2l-9-1l-8,8l-3-6.5v6l-4.5-4.5l-1-7.5l-2-3.5l4.5-2.5l-8-0.5l4-9l-1.5-3.5l10.5-9l3,1l6.5-2l0.5,7l-1.5,3
	l2,3l8-1.5l3-10l4-4l-3.5-3.5h-11.5l-3.5-7.5l1.5-7.5l-6-3.5l4-12.5l-3-2.5l5.5-7.5l-11.5-7.5l-3.5,4.5l-6.5-7.5l5-4l2,3l4-3
	l-6.5-9.5l3.5-3l3,2.5l2.5-2l-1.5-2l2.5-2l18,7l5.5-4.5l9,3.5l-12,11.5l2.5,11l-6.4,0.8l2.4,7.7l-6.5,0.5l1,11l4.5,0.5l5,19l8,3
	l9.5-6h12.5l17.5-12.5l12.5-9l4-0.5l-7.5-29.1l7-2.5h3.5l-2-8.5l15.5-4l3,2.5l0.5,5l-6.5-0.5v6.5l3,2l-1,4.5l-1.5,0.5l-2.5,1.5
	l0.5,16.5l-3,4l1.5-0.5l12-1l33.5,13h13.5l12.5,1.5l37,33.1l30,27.6l3.2,25.2l0.8,17.9l-0.2,29.7l21.7-5.1l1.5,9h-1.5l-10,2.5
	l2.5,12l20-1.5l3.5-5l15,8l-1.1,4.7l5.5,0.5l0.8,3.7h5.5l-3.3,1.9l2,3.6l-11.1-0.9l8.1,7.2l-8.3,2.7l8.3,4.8l0.1,17l-22-4.2
	l-0.6-4.6l-1.7-4.8l7-10.5l-4.1,2.3l-1.9-5.9l-3.1,1.1l-2-5.1l-8.2,0.6l-8,9l-7.5-6.5l-2.5,2l6.5,6.5l-3,2.5l2.5,2l-2.5,12l-14-11
	l3.5,13l1,16l-4,4l-13,16.5l-6.5,6.5l-16,16l-36,26.1l-12,4l-34.5-4l4.5,11.5l-8,3.5l-5,33.6l3,1.5l6,7l2.5,10.5l-9,5l-5.2,3.7
	l-6,12.6l-7.4,0.6l1.8,11.9l-11.6,7.3l2.4,14.5l-18.3-4.8l-3-9.7l5.6-9.4l-18.5-6.8l-3.1-14.7l-11.7,5.8l-11.4,14.9l-8-5l-1.5,16.5
	l0.5,9.1l19,1.6l5.1,2.9l0.8,8.8l14.7,2.1l6.8,41.6l-5.7-5.5l-4.3,5l-2.5-3.7l0.4-4.1l-4,3.2l-3.6-0.5l-8,10l8.2,6.8l-9.2,4.3
	l-0.9,6l-8.4,5.7l9.9,11.3l1.6,5.6l-2.6,4.2l-5.4-0.5l-3.3,3.3l-9.8-5.1l0.9,5.5l-0.8,6.5l7.5-0.3l7.1,9.4l-3.4,1.8l-6,41
	l-26.5,11.4l-58-3.5l3-14l-37.5,19.6l4.5,57.6l-16.5,4l1.5,9.5l-22.5,1.5l0.5,5l-21.5,2.5l-0.5,29.6l10.5-2l10.5,4.5l1.5,9l10.5-2
	l-4.5,17.5l4.5,14.5l-20,5.5l9,11.5l-1,9.5l8.5,8.5l3.5-1.5l16.5,23.6l-9.5,8l21,21.1l-1.5,6l-7-2.5l5.5,10l2,10l11.5,13l-8,11
	l-6,14l3.5,4.5l-4,8l4,3l-4.5,9l18.5,15l10-1.5l6.5,7.5l10-6.5l10,4.5l-8,10.5l18.5,7.5l0.5-13l0.5-7.5l12,10.5l5-8l11,11l1.5-14
	l7.5-1.5l2.5,13.5l8-5l10.5,3.5l15-4l1,5.5l4-1l8,17l7.5-2.5l7.5,13l-3,11.5l9,3.5l-2,6l17.5,2l6,18.1l-2.5,6.5l-2.5,5l0.5,8.5l9,5
	l2.5-13l28,5l28,21.5l6.5-6.5l12,1l22-23.1l-3.5-5l1.5-14l8.5-1l1-13.5h-6l-0.5-16.1l8-4.5l-8-14.5l-9.5-5l56-9.5l23.5-7.5l13-0.5
	l11,8.5l9.5,2l0.5,7l7,5.5l-5,28.1l18.5,11l-1.5,4.5l14,11.5l2,25.6l-9.5-1l1.5,9.5l24,15.5l20-7l10.5,28.6l15.5-12.5l21.5,1l2.5,15
	l19,14.5l16.5-14.5l16.5,25.1l14-5.5l3.5,3l16,14l15.5-13h20.5l7.5,17.5l18,37.1l-30,20.1l1,17.5l-10-5.5l7.5,15.5l-16.5-7l-20,14.5
	l13.5,24l-7,29.6l16,9l5,13l10,1l6.5,10.5l3,5.5l-10,6.5l17,16l21.5-0.5l-11,47.1l5.5,43.1l56.5,16l6.5,13l9,4.5l26-12.5l3-15.5
	l-8.5-2l3.5-52.1l33.5-12l-2.5-10.5l22.5,1l8-17.5l18,21.6l1.5-17.6l0.5-2.5l34-14.5l-5.5-28.6l-11.5,1l-13,1l-19-17.1l-22.5,3.5
	l-5-34.6l9-5l-4-15l7.5-10.5l20-3.5l-3-11l-23,6l-2.5-18l19.5-9l-8.5-13l10-3.5l-3.5-10l-2.5-10l13-15l6,12l39.5-18l5,20.1l10,8.5
	l17.5-32.1l33.5,2.5l9.5-11l12,16.5l4.5-14l10,2l4.5-16.1l13.5,19.6l25-2.5l11-31.6l-13.5-8l5.5-6.5l-3.5-16l4-16.6l29.5-4l1,8l19,6
	l-5-9.5l22-17.5l-29.5-4l9-8l-1.5-9l14.5-8.5l-3-5l9.5-19.5l7.5-15l13-10l-13.5-16.1l32-29.1l-0.5-33.6l31-33.1l2.5-13h40.5l2.5-6
	l-8.5-15.1l12.5,8l2-29.6l6,1l16,1.5l10.5,17l40.5-1l-2-22.6l24.5,22.1l27.5-94.7l-14-2.5l-5.5-9.5l-5-9.5l-28.5,21h-17l35.5-66.7
	l1-1.5l75-19l22.5,7l30.5-35.6l50.5-18l12.5-37.6l11-5.5l-0.5-1l-13.5-16l14-11l-13-45.1l-15.5-17.6l4.5-38.6l20,3.5l1-35.6v-0.5
	l-12-4.5l-3-19.5l-57,2.5l-2-51.6l4.5,1.5l9.5,3.5l6-23.6l-22-27.1l5.5-18l-19-26.1l-9.5-1l-21-31.6l-10,3l-25-37.1l13-35.1
	l-10.5-29.1l-40-3.5l-9,10l-0.5-13.5l-28.5-0.5l-10,25.1l-8,1l2,21.1l-19,2l-13-15.6l-22.5,12l-36,1.5l0.5,39.1h-17l-9-2.5l1-24.6
	l-22.5,0.5l3.5-7l-33.5,12.5l-2,0.5l-18-3.5l-1.5-27.6l-16-27.1l24-21.5l-6-5l-33.5,21.6l-75-8.5l-37.5-53.1l15-21.6l-3.5-6l-7.5,17
	l-14.5-7.5v-9l19.5-3l-18.5-7l-33.5,16.5l-26-12.5l-28.5,28.6l-12.5-21.1l-42-37.1l-16-6l-31.5,6l-16,4.5l-14-21.5l23.5-13.5l-1.5-1
	l-14-6l1-28.6l-19.5-6l-5.5-15l-5-16.5l1.5-16.6l-9-7.5l3-24.6l-12-22.6l14.5-30.1l-34.5,8.5l-7.5-19l-16-16.5l1.5-11l-8-8.5l9.5-10
	l-2-2l8.5-8.5l4-21l-13.5-7l9-34.1l-10-10.5l22-4l-4-16l-32-5.5l15.5-34.1l-7-18l-28.5,4l2-22.1l-22.5-11.5l23-20l-24,1.5l-10.5-11
	l6-13.5l38.5-28.6l-2-18l-16.5-10l9-20l-12.5-8.5l-7.5-49.1l9-20.6l-11-21l3.5-18.6l-31.5-25.1v26.1l-18-8.5h-36.5l-12,9l-19.5-1
	l-3,10l-8-1l1.5-15h-28.5l-7-85.7l-29.3-19.1l-16.5,10l-14-26.6l-13,3l-4.5-7.5l-13.5,2.5l-7.5-19.5h-16l2.5-16.1L2061.6,1.9z"/>
<path id="_142580001" inkscape:label="#_Border1_Zelenograd" class="st7" d="M1805.6,830.4l-13.5,8l-6-7.5l-11,2.5l13,21.6l-7,4.5
	l4,16l-3,7.5l20,1.5l16.5,12l-4-21.1l6.5-10l13,4l1.5,8l0,0l5.5-1l1.5-17h-6l4-4.5L1805.6,830.4z"/>
<path id="_142580002" inkscape:label="#_Border2_Konezavod" class="st7" d="M1731,1069.4l5.2,3.1l-3.1,6.1l7.4,1.8l3.6,3.7l7.1-4.5
	l16.7,0.2l-1.5-4.7l-6.7,2.6l-6.4-4.1l6.9-6.3l15,11.9l-6.3,9.2l-13.8,2.4l-5.1-4.4l-4.4,8.9l-10.2-1l3.8,9.3l-4.7,0.2l0.1-2.6
	l-5.6-0.2l-0.1,2.3l-4.2,0.7l-5.4-6.2l4.3-3.4l6.3-1.2l-0.3-4.9l-1.1-1.3l-4,0.2l-1.2,2.2l-2.3,1.7l-13-7l3.8-3.9l-2.3-3.9l-2.5-2
	l-3.6,6l-15.4,0.1l2.9-13.8l-7.8,12.6h-5.8l-1.1-1.2l-2.3-0.4l-2,1.7l-2.5-8.4l3.8-2.6l4.4-0.6l6.8-0.3l-2.6-4.4l12.7-2.9l0.3-5.1
	l2.8-1.8l7.3,4.2l2.6-0.1l6.5-0.2l3.5,5.6l-0.9,3.8L1731,1069.4L1731,1069.4L1731,1069.4z"/>
<path id="_142580003" inkscape:label="#_Border3_Vostochny" class="st7" d="M2143.1,1021.4l7.5-10l5,3.5l3.5-2.5l-1-3.5l-14-1.5
	l-2,0.5l-11,6l5.5,6.5l3-1.5l1,2.5H2143.1z"/>
<path id="_142580004" inkscape:label="#_Border4_Vostochny2" class="st7" d="M2147.6,1003.6l-0.5-0.8l-4.5,1l0.4,0.9L2147.6,1003.6z
	"/>
<path id="_142580005" inkscape:label="#_Border5_Akulovo" class="st7" d="M2107.1,839.9L2107.1,839.9l0.5,3l-1,2l-1-0.5l-1-0.5l-1-2
	L2107.1,839.9z"/>
<path id="_142580006" inkscape:label="#_Border6_Akulovo2" class="st7" d="M2104.6,845.4l1,0.5l-3,1.5l-0.5-0.5L2104.6,845.4z"/>
<path id="_142580007" inkscape:label="#_Border7_Rublevo" class="st7" d="M1869.1,1052l5,2.5l3.5-4l3.5,2.5l11.8-16.5l0.8-1.5
	l-10.6-6.6l-1,1l-1.5-1l-4.5-0.5l1-5.5l-15.5-0.2l3.9,15l10.3,7.9l-1.7,4.3L1869.1,1052z"/>
<path id="_142580008" inkscape:label="#_Border8_Rublevo2" class="st7" d="M1852,1023l-1.1-6.8l6-0.7l1,6.7L1852,1023z"/>
<path id="_142580009" inkscape:label="#_Border9_Machihino" class="st8" d="M1666.8,1432.9l2.5,0.9l-1.5,3.7l4.8,1.6l-3,6.5
	l-1.9-0.8l-0.9,0.7l-0.5,2.4l-2.2,1.8l-2.6-2.6l1.3-2.4l1.2,0.5l1.8-2.7l0.6-5.1l-0.8-1L1666.8,1432.9z"/>
<linearGradient id="SVGID_1_" gradientUnits="userSpaceOnUse" x1="-592.5207" y1="1434.6472" x2="1230.0969" y2="1434.6472" gradientTransform="matrix(6.123234e-17 1 -1 6.123234e-17 1829.4972 647.6306)">
	<stop  offset="0" style="stop-color:#007F1A"/>
	<stop  offset="0.2929" style="stop-color:#7A880B"/>
	<stop  offset="0.5112" style="stop-color:#D08F00"/>
	<stop  offset="1" style="stop-color:#BF0000"/>
</linearGradient>
<polygon class="st9" points="338.5,2308.4 338.5,55.1 451.2,55.1 451.2,2308.4 "/>
</svg>
