<?xml version="1.0" encoding="utf-8"?>
<!-- Generator: Adobe Illustrator 25.2.1, SVG Export Plug-In . SVG Version: 6.00 Build 0)  -->
<svg version="1.1" id="Слой_1" xmlns="http://www.w3.org/2000/svg" xmlns:xlink="http://www.w3.org/1999/xlink" x="0px" y="0px"
	 viewBox="0 0 24 24" style="enable-background:new 0 0 24 24;" xml:space="preserve">
<style type="text/css">
	.st0{fill:none;}
	.st1{display:none;}
</style>
<path class="st0" d="M0,0h24v24H0V0z"/>
<path d="M3,18h6v-2H3V18z M3,6v2h18V6H3z M3,13h12v-2H3V13z"/>
<path d="M19.5,14.5h-5.6c-0.4,0-0.7,0.3-0.7,0.7v6.3l1.4-1.4h4.9c0.4,0,0.7-0.3,0.7-0.7v-4.2C20.2,14.8,19.8,14.5,19.5,14.5z
	 M19.5,19.4h-4.9l-0.7,0.7v-4.9h5.6V19.4z"/>
<path class="st0" d="M-11.9,7.2h24v24h-24V7.2z"/>
<path class="st1" d="M16.7,15.3c-1.6,0-2.9,1-3.5,2.4c0.5,1.4,1.9,2.4,3.5,2.4s2.9-1,3.5-2.4C19.6,16.3,18.3,15.3,16.7,15.3z
	 M16.7,19.2c-0.9,0-1.6-0.7-1.6-1.6s0.7-1.6,1.6-1.6c0.9,0,1.6,0.7,1.6,1.6S17.6,19.2,16.7,19.2z M16.7,16.7c-0.5,0-0.9,0.4-0.9,0.9
	s0.4,0.9,0.9,0.9s0.9-0.4,0.9-0.9S17.2,16.7,16.7,16.7z"/>
<path class="st0" d="M13.2,14.2h6.9v6.9h-6.9V14.2z"/>
<path class="st0" d="M13.2,14.2h6.9v6.9h-6.9V14.2z"/>
<circle class="st1" cx="17.7" cy="16.9" r="0.4"/>
<circle class="st1" cx="15.7" cy="16.9" r="0.4"/>
<circle class="st1" cx="17.7" cy="16.9" r="0.4"/>
<circle class="st1" cx="15.7" cy="16.9" r="0.4"/>
<path class="st1" d="M16.7,14.8c-1.6,0-2.9,1.3-2.9,2.9c0,1.6,1.3,2.9,2.9,2.9c1.6,0,2.9-1.3,2.9-2.9C19.6,16.1,18.3,14.8,16.7,14.8
	z M16.7,20c-1.3,0-2.3-1-2.3-2.3c0-1.3,1-2.3,2.3-2.3s2.3,1,2.3,2.3C19,18.9,18,20,16.7,20z M16.7,19.2c0.7,0,1.3-0.4,1.5-1h-0.5
	c-0.2,0.3-0.6,0.6-1,0.6s-0.8-0.2-1-0.6h-0.5C15.4,18.8,16,19.2,16.7,19.2z"/>
</svg>
